<?xml version="1.0" standalone="no"?>
<!DOCTYPE svg PUBLIC "-//W3C//DTD SVG 20010904//EN"
 "http://www.w3.org/TR/2001/REC-SVG-20010904/DTD/svg10.dtd">
<svg version="1.0" xmlns="http://www.w3.org/2000/svg"
 width="512.000000pt" height="512.000000pt" viewBox="0 0 512.000000 512.000000"
 preserveAspectRatio="xMidYMid meet">
<metadata>
Created by potrace 1.11, written by Peter Selinger 2001-2013
</metadata>
<g transform="translate(0.000000,512.000000) scale(0.100000,-0.100000)"
fill="#000000" stroke="none">
<path d="M2583 4812 c-25 -4 -44 -28 -90 -112 -16 -30 -94 -167 -173 -305 -79
-137 -151 -265 -162 -283 -10 -18 -37 -66 -59 -105 -23 -40 -49 -85 -59 -102
-54 -95 -56 -105 -32 -134 16 -21 26 -22 203 -23 l187 -1 -42 -86 c-59 -122
-58 -119 -96 -126 -247 -42 -493 -141 -720 -291 -126 -83 -120 -80 -120 -57 0
25 -54 213 -86 297 -32 84 -119 270 -144 306 -9 14 -43 63 -74 110 -84 127
-108 156 -207 257 -188 190 -424 325 -629 358 -25 4 -53 9 -62 11 -24 4 -58
-26 -63 -56 -15 -97 -21 -297 -10 -390 2 -25 7 -65 9 -90 2 -25 9 -74 16 -110
6 -36 13 -75 15 -87 2 -13 8 -37 14 -55 60 -196 81 -257 118 -341 128 -289
307 -527 525 -699 l78 -61 -30 -51 c-88 -147 -162 -314 -198 -446 -25 -89 -28
-105 -47 -237 -11 -73 -6 -226 10 -318 58 -340 277 -659 614 -895 96 -68 118
-81 256 -149 317 -157 649 -233 1025 -235 175 0 289 9 430 35 30 6 70 13 89
16 18 3 72 16 120 29 47 14 93 26 101 28 51 13 245 93 332 137 374 192 645
472 781 806 48 119 79 279 80 413 1 160 -46 397 -103 525 -5 11 -25 55 -44 97
-31 70 -79 158 -120 220 -16 25 -16 25 56 81 137 103 278 259 377 413 37 58
112 199 173 327 43 89 117 352 138 487 39 256 27 569 -23 601 -22 15 -164 -16
-272 -58 -174 -69 -287 -145 -436 -293 -122 -122 -153 -159 -241 -295 -130
-200 -231 -433 -278 -647 l-13 -57 -91 62 c-171 115 -348 195 -606 274 -16 5
-8 12 155 158 43 39 83 75 89 80 6 6 52 46 101 89 142 125 160 149 137 182
-16 25 -56 30 -229 30 -101 -1 -183 2 -183 6 0 4 115 145 256 314 310 373 304
365 304 396 0 53 7 53 -529 53 -273 0 -506 -1 -518 -3z"/>
</g>
</svg>
